<svg xmlns="http://www.w3.org/2000/svg" version="1.1" xmlns:xlink="http://www.w3.org/1999/xlink" xmlns:svgjs="http://svgjs.dev/svgjs" width="560" height="1460" preserveAspectRatio="none" viewBox="0 0 560 1460"><g mask="url(&quot;#SvgjsMask1099&quot;)" fill="none"><rect width="560" height="1460" x="0" y="0" fill="rgba(3, 10, 18, 1)"></rect><path d="M133 351L494 -10" stroke-width="10" stroke="url(&quot;#SvgjsLinearGradient1100&quot;)" stroke-linecap="round" class="TopRight"></path><path d="M183 701L-65 949" stroke-width="8" stroke="url(&quot;#SvgjsLinearGradient1101&quot;)" stroke-linecap="round" class="BottomLeft"></path><path d="M311 891L-103 1305" stroke-width="8" stroke="url(&quot;#SvgjsLinearGradient1100&quot;)" stroke-linecap="round" class="TopRight"></path><path d="M3 1119L324 798" stroke-width="6" stroke="url(&quot;#SvgjsLinearGradient1101&quot;)" stroke-linecap="round" class="BottomLeft"></path><path d="M113 1192L446 859" stroke-width="6" stroke="url(&quot;#SvgjsLinearGradient1101&quot;)" stroke-linecap="round" class="BottomLeft"></path><path d="M12 1326L155 1183" stroke-width="8" stroke="url(&quot;#SvgjsLinearGradient1101&quot;)" stroke-linecap="round" class="BottomLeft"></path><path d="M231 1136L-79 1446" stroke-width="10" stroke="url(&quot;#SvgjsLinearGradient1100&quot;)" stroke-linecap="round" class="TopRight"></path><path d="M13 345L359 -1" stroke-width="6" stroke="url(&quot;#SvgjsLinearGradient1101&quot;)" stroke-linecap="round" class="BottomLeft"></path><path d="M124 529L309 344" stroke-width="8" stroke="url(&quot;#SvgjsLinearGradient1101&quot;)" stroke-linecap="round" class="BottomLeft"></path><path d="M296 172L684 -216" stroke-width="6" stroke="url(&quot;#SvgjsLinearGradient1101&quot;)" stroke-linecap="round" class="BottomLeft"></path><path d="M152 1379L371 1160" stroke-width="10" stroke="url(&quot;#SvgjsLinearGradient1100&quot;)" stroke-linecap="round" class="TopRight"></path><path d="M66 1436L-139 1641" stroke-width="6" stroke="url(&quot;#SvgjsLinearGradient1100&quot;)" stroke-linecap="round" class="TopRight"></path><path d="M542 1226L689 1079" stroke-width="8" stroke="url(&quot;#SvgjsLinearGradient1100&quot;)" stroke-linecap="round" class="TopRight"></path><path d="M2 1438L-224 1664" stroke-width="6" stroke="url(&quot;#SvgjsLinearGradient1100&quot;)" stroke-linecap="round" class="TopRight"></path><path d="M503 390L161 732" stroke-width="8" stroke="url(&quot;#SvgjsLinearGradient1100&quot;)" stroke-linecap="round" class="TopRight"></path><path d="M519 282L770 31" stroke-width="8" stroke="url(&quot;#SvgjsLinearGradient1100&quot;)" stroke-linecap="round" class="TopRight"></path><path d="M207 443L460 190" stroke-width="6" stroke="url(&quot;#SvgjsLinearGradient1101&quot;)" stroke-linecap="round" class="BottomLeft"></path><path d="M450 1386L707 1129" stroke-width="6" stroke="url(&quot;#SvgjsLinearGradient1101&quot;)" stroke-linecap="round" class="BottomLeft"></path><path d="M155 32L-211 398" stroke-width="8" stroke="url(&quot;#SvgjsLinearGradient1101&quot;)" stroke-linecap="round" class="BottomLeft"></path><path d="M85 999L346 738" stroke-width="8" stroke="url(&quot;#SvgjsLinearGradient1101&quot;)" stroke-linecap="round" class="BottomLeft"></path><path d="M125 1314L384 1055" stroke-width="6" stroke="url(&quot;#SvgjsLinearGradient1100&quot;)" stroke-linecap="round" class="TopRight"></path><path d="M114 325L367 72" stroke-width="6" stroke="url(&quot;#SvgjsLinearGradient1100&quot;)" stroke-linecap="round" class="TopRight"></path><path d="M223 719L591 351" stroke-width="6" stroke="url(&quot;#SvgjsLinearGradient1101&quot;)" stroke-linecap="round" class="BottomLeft"></path><path d="M30 987L278 739" stroke-width="6" stroke="url(&quot;#SvgjsLinearGradient1101&quot;)" stroke-linecap="round" class="BottomLeft"></path><path d="M119 638L287 470" stroke-width="10" stroke="url(&quot;#SvgjsLinearGradient1101&quot;)" stroke-linecap="round" class="BottomLeft"></path><path d="M76 1046L-66 1188" stroke-width="8" stroke="url(&quot;#SvgjsLinearGradient1100&quot;)" stroke-linecap="round" class="TopRight"></path><path d="M287 1261L640 908" stroke-width="10" stroke="url(&quot;#SvgjsLinearGradient1100&quot;)" stroke-linecap="round" class="TopRight"></path><path d="M551 514L891 174" stroke-width="6" stroke="url(&quot;#SvgjsLinearGradient1101&quot;)" stroke-linecap="round" class="BottomLeft"></path><path d="M248 11L24 235" stroke-width="8" stroke="url(&quot;#SvgjsLinearGradient1100&quot;)" stroke-linecap="round" class="TopRight"></path><path d="M178 333L369 142" stroke-width="10" stroke="url(&quot;#SvgjsLinearGradient1100&quot;)" stroke-linecap="round" class="TopRight"></path><path d="M86 924L-217 1227" stroke-width="6" stroke="url(&quot;#SvgjsLinearGradient1100&quot;)" stroke-linecap="round" class="TopRight"></path><path d="M172 1147L28 1291" stroke-width="6" stroke="url(&quot;#SvgjsLinearGradient1101&quot;)" stroke-linecap="round" class="BottomLeft"></path><path d="M418 43L726 -265" stroke-width="10" stroke="url(&quot;#SvgjsLinearGradient1101&quot;)" stroke-linecap="round" class="BottomLeft"></path><path d="M65 808L373 500" stroke-width="6" stroke="url(&quot;#SvgjsLinearGradient1101&quot;)" stroke-linecap="round" class="BottomLeft"></path><path d="M357 270L-33 660" stroke-width="6" stroke="url(&quot;#SvgjsLinearGradient1101&quot;)" stroke-linecap="round" class="BottomLeft"></path><path d="M55 163L-248 466" stroke-width="6" stroke="url(&quot;#SvgjsLinearGradient1101&quot;)" stroke-linecap="round" class="BottomLeft"></path><path d="M191 399L-45 635" stroke-width="10" stroke="url(&quot;#SvgjsLinearGradient1101&quot;)" stroke-linecap="round" class="BottomLeft"></path><path d="M318 1349L93 1574" stroke-width="8" stroke="url(&quot;#SvgjsLinearGradient1101&quot;)" stroke-linecap="round" class="BottomLeft"></path><path d="M166 664L-157 987" stroke-width="8" stroke="url(&quot;#SvgjsLinearGradient1101&quot;)" stroke-linecap="round" class="BottomLeft"></path><path d="M300 1297L85 1512" stroke-width="6" stroke="url(&quot;#SvgjsLinearGradient1101&quot;)" stroke-linecap="round" class="BottomLeft"></path></g><defs><mask id="SvgjsMask1099"><rect width="560" height="1460" fill="#ffffff"></rect></mask><linearGradient x1="0%" y1="100%" x2="100%" y2="0%" id="SvgjsLinearGradient1100"><stop stop-color="rgba(142, 28, 28, 0)" offset="0"></stop><stop stop-color="rgba(142, 28, 28, 0.75)" offset="1"></stop></linearGradient><linearGradient x1="100%" y1="0%" x2="0%" y2="100%" id="SvgjsLinearGradient1101"><stop stop-color="rgba(142, 28, 28, 0)" offset="0"></stop><stop stop-color="rgba(142, 28, 28, 0.75)" offset="1"></stop></linearGradient></defs></svg>